<svg width="32" height="32" viewBox="0 0 32 32" fill="none" xmlns="http://www.w3.org/2000/svg">
<path d="M25.1137 21.8789H13.6394C12.5952 21.8715 11.5839 21.5131 10.768 20.8614C9.9521 20.2097 9.37911 19.3025 9.14115 18.2858L7.31258 10.8526C7.14435 10.1624 7.13573 9.44296 7.28737 8.74894C7.43901 8.05491 7.74692 7.40461 8.18769 6.84748C8.62845 6.29036 9.19046 5.84108 9.83097 5.53382C10.4715 5.22656 11.1736 5.06942 11.884 5.07433H26.9697C27.6801 5.06942 28.3823 5.22656 29.0228 5.53382C29.6633 5.84108 30.2253 6.29036 30.6661 6.84748C31.1068 7.40461 31.4147 8.05491 31.5664 8.74894C31.718 9.44296 31.7094 10.1624 31.5412 10.8526L29.7126 18.304C29.4657 19.3335 28.8758 20.2482 28.04 20.8979C27.2042 21.5476 26.1722 21.8936 25.1137 21.8789ZM11.8292 7.36004C11.4678 7.36115 11.1113 7.444 10.7865 7.60241C10.4617 7.76082 10.1769 7.99067 9.9535 8.27474C9.73011 8.55882 9.57389 8.88976 9.49654 9.24277C9.4192 9.59579 9.42273 9.96173 9.50687 10.3132L11.3354 17.7646C11.4593 18.2868 11.7562 18.7517 12.1778 19.0837C12.5995 19.4157 13.1211 19.5953 13.6577 19.5932H25.1137C25.6504 19.5953 26.172 19.4157 26.5936 19.0837C27.0153 18.7517 27.3122 18.2868 27.436 17.7646L29.2646 10.3132C29.3506 9.96158 29.3554 9.59502 29.2788 9.24126C29.2022 8.88749 29.0461 8.55579 28.8224 8.27126C28.5986 7.98673 28.3131 7.75683 27.9874 7.59896C27.6616 7.44109 27.3043 7.35939 26.9423 7.36004H11.8292Z" fill="#F24E1E"/>
<path d="M8.6492 12.8C8.3881 12.7969 8.13593 12.7045 7.93465 12.5381C7.73337 12.3718 7.59512 12.1415 7.54292 11.8857L5.90635 4.78169C5.75522 4.13454 5.38894 3.55784 4.86742 3.14595C4.34591 2.73405 3.70004 2.51134 3.03549 2.51426H1.5452C1.2421 2.51426 0.951406 2.39385 0.737079 2.17953C0.522752 1.9652 0.402344 1.67451 0.402344 1.3714C0.402344 1.0683 0.522752 0.77761 0.737079 0.563283C0.951406 0.348955 1.2421 0.228548 1.5452 0.228548H3.03549C4.21656 0.224422 5.36414 0.620907 6.29076 1.35324C7.21739 2.08558 7.86831 3.11048 8.1372 4.26055L9.76463 11.3645C9.79986 11.5105 9.80575 11.6619 9.78197 11.8102C9.75819 11.9584 9.70522 12.1004 9.62612 12.228C9.54702 12.3556 9.44337 12.4662 9.32118 12.5534C9.199 12.6406 9.06071 12.7026 8.91435 12.736C8.82844 12.7665 8.73957 12.7879 8.6492 12.8ZM13.8149 31.7714C13.0916 31.7714 12.3845 31.5569 11.7831 31.1551C11.1817 30.7532 10.713 30.182 10.4362 29.5138C10.1594 28.8455 10.0869 28.1102 10.228 27.4008C10.3692 26.6914 10.7175 26.0397 11.2289 25.5283C11.7404 25.0168 12.392 24.6685 13.1014 24.5274C13.8109 24.3863 14.5462 24.4587 15.2144 24.7355C15.8827 25.0123 16.4539 25.481 16.8557 26.0825C17.2576 26.6839 17.4721 27.3909 17.4721 28.1143C17.4721 29.0842 17.0868 30.0144 16.4009 30.7002C15.7151 31.3861 14.7849 31.7714 13.8149 31.7714ZM13.8149 26.7063C13.5401 26.7063 13.2714 26.7878 13.0428 26.9405C12.8143 27.0932 12.6362 27.3102 12.531 27.5642C12.4258 27.8181 12.3983 28.0975 12.4519 28.3671C12.5055 28.6367 12.6379 28.8843 12.8322 29.0786C13.0266 29.273 13.2742 29.4054 13.5438 29.459C13.8134 29.5126 14.0928 29.4851 14.3467 29.3799C14.6007 29.2747 14.8177 29.0966 14.9704 28.8681C15.1231 28.6395 15.2046 28.3708 15.2046 28.096C15.2046 27.7274 15.0582 27.3739 14.7976 27.1133C14.537 26.8527 14.1835 26.7063 13.8149 26.7063ZM26.4503 31.7714C25.727 31.7714 25.02 31.5569 24.4186 31.1551C23.8171 30.7532 23.3484 30.182 23.0716 29.5138C22.7948 28.8455 22.7224 28.1102 22.8635 27.4008C23.0046 26.6914 23.3529 26.0397 23.8644 25.5283C24.3758 25.0168 25.0275 24.6685 25.7369 24.5274C26.4463 24.3863 27.1816 24.4587 27.8499 24.7355C28.5181 25.0123 29.0893 25.481 29.4912 26.0825C29.893 26.6839 30.1075 27.3909 30.1075 28.1143C30.1075 29.0842 29.7222 30.0144 29.0363 30.7002C28.3505 31.3861 27.4203 31.7714 26.4503 31.7714ZM26.4503 26.7063C26.1759 26.7081 25.9081 26.7911 25.6808 26.9449C25.4534 27.0987 25.2767 27.3164 25.173 27.5705C25.0692 27.8245 25.043 28.1037 25.0976 28.3727C25.1523 28.6416 25.2853 28.8884 25.48 29.0818C25.6748 29.2753 25.9224 29.4067 26.1917 29.4596C26.461 29.5125 26.74 29.4845 26.9934 29.379C27.2468 29.2736 27.4633 29.0954 27.6156 28.8671C27.7679 28.6388 27.8492 28.3704 27.8492 28.096C27.8492 27.9127 27.813 27.7312 27.7426 27.562C27.6721 27.3928 27.569 27.2392 27.4389 27.1101C27.3089 26.9809 27.1546 26.8787 26.985 26.8094C26.8153 26.7401 26.6336 26.7051 26.4503 26.7063Z" fill="#F24E1E"/>
<path d="M26.4487 26.7059H11.2167C10.2735 26.7059 9.36884 26.3312 8.70185 25.6642C8.03487 24.9972 7.66016 24.0926 7.66016 23.1493C7.66016 22.2061 8.03487 21.3015 8.70185 20.6345C9.36884 19.9675 10.2735 19.5928 11.2167 19.5928H13.6396C13.9427 19.5928 14.2334 19.7132 14.4477 19.9275C14.662 20.1418 14.7824 20.4325 14.7824 20.7356C14.7824 21.0387 14.662 21.3294 14.4477 21.5438C14.2334 21.7581 13.9427 21.8785 13.6396 21.8785H11.2167C10.8797 21.8785 10.5564 22.0124 10.3181 22.2507C10.0798 22.489 9.94587 22.8123 9.94587 23.1493C9.94587 23.4864 10.0798 23.8096 10.3181 24.048C10.5564 24.2863 10.8797 24.4202 11.2167 24.4202H26.4487C26.7518 24.4202 27.0425 24.5406 27.2569 24.7549C27.4712 24.9693 27.5916 25.26 27.5916 25.5631C27.5916 25.8662 27.4712 26.1569 27.2569 26.3712C27.0425 26.5855 26.7518 26.7059 26.4487 26.7059Z" fill="#F24E1E"/>
</svg>
