<svg width="32" height="32" viewBox="0 0 32 32" fill="none" xmlns="http://www.w3.org/2000/svg">
<g clip-path="url(#clip0_618_39608)">
<path d="M7.09187 18.8008L5.978 22.8436L1.90681 22.9273C0.690125 20.7333 0 18.2231 0 15.5556C0 12.9761 0.64525 10.5436 1.789 8.4017H1.78987L5.41437 9.04774L7.00212 12.5504C6.66981 13.4923 6.48869 14.5034 6.48869 15.5556C6.48881 16.6974 6.70156 17.7915 7.09187 18.8008Z" fill="#FBBB00"/>
<path d="M31.7203 12.6496C31.904 13.5906 31.9998 14.5624 31.9998 15.5556C31.9998 16.6693 31.8794 17.7556 31.6499 18.8035C30.8711 22.3693 28.8359 25.4829 26.0166 27.6864L26.0157 27.6855L21.4504 27.459L20.8043 23.5376C22.6751 22.471 24.1371 20.8017 24.9072 18.8035H16.3516V12.6496H25.032H31.7203Z" fill="#518EF8"/>
<path d="M26.0152 27.6855L26.0161 27.6863C23.2742 29.8291 19.7911 31.1111 15.9994 31.1111C9.90625 31.1111 4.60869 27.8 1.90625 22.9274L7.09131 18.8009C8.4425 22.3069 11.9212 24.8026 15.9994 24.8026C17.7524 24.8026 19.3946 24.3419 20.8038 23.5376L26.0152 27.6855Z" fill="#28B446"/>
<path d="M26.2128 3.58118L21.0295 7.70681C19.5711 6.8205 17.8471 6.30851 16.0001 6.30851C11.8295 6.30851 8.28575 8.91874 7.00225 12.5504L1.78994 8.4017H1.78906C4.45194 3.41025 9.81632 0 16.0001 0C19.8823 0 23.4418 1.34446 26.2128 3.58118Z" fill="#F14336"/>
</g>
<defs>
<clipPath id="clip0_618_39608">
<rect width="32" height="31.1111" rx="8" fill="white"/>
</clipPath>
</defs>
</svg>
