<svg width="28" height="32" viewBox="0 0 28 32" fill="none" xmlns="http://www.w3.org/2000/svg">
<path d="M18.0155 12.8805C17.0398 13.3876 15.8738 13.6667 14.667 13.6667C13.0434 13.6667 11.5222 13.163 10.4322 12.3152C9.34801 11.472 8.80985 10.3899 8.80985 9.33334C8.80985 8.54121 9.11024 7.73639 9.72401 7.02194C10.3415 6.30321 11.2471 5.71296 12.3495 5.3578C13.4508 5.003 14.672 4.9082 15.8519 5.09072C17.0325 5.27337 18.0911 5.72094 18.9018 6.35145C19.711 6.98084 20.2214 7.75006 20.4236 8.54062C20.6241 9.32465 20.5257 10.1416 20.1195 10.9043C19.7094 11.6744 18.9916 12.3732 18.0155 12.8805ZM25.551 26.8201C25.4254 26.9178 25.2123 27 24.9527 27H4.38128C4.12169 27 3.90859 26.9178 3.78303 26.8201C3.72322 26.7736 3.69359 26.7321 3.68012 26.7069C3.66733 26.6828 3.66699 26.6702 3.66699 26.6667C3.66699 24.5493 4.74699 22.4498 6.79565 20.8564C8.85015 19.2584 11.6795 18.3333 14.667 18.3333C17.6545 18.3333 20.4838 19.2584 22.5383 20.8564C24.587 22.4498 25.667 24.5493 25.667 26.6667C25.667 26.6702 25.6666 26.6828 25.6539 26.7069C25.6404 26.7321 25.6108 26.7736 25.551 26.8201Z" stroke="#161515" stroke-width="2"/>
</svg>
