<svg width="75" height="75" viewBox="0 0 75 75" fill="none" xmlns="http://www.w3.org/2000/svg">
<path d="M50 9.375H3.125V50H50V9.375Z" fill="white" stroke="#F24E1E" stroke-width="5" stroke-linecap="round" stroke-linejoin="round"/>
<path d="M50 25H62.5L71.875 34.375V50H50V25Z" fill="white" stroke="#F24E1E" stroke-width="5" stroke-linecap="round" stroke-linejoin="round"/>
<path d="M17.1875 65.625C21.5022 65.625 25 62.1272 25 57.8125C25 53.4978 21.5022 50 17.1875 50C12.8728 50 9.375 53.4978 9.375 57.8125C9.375 62.1272 12.8728 65.625 17.1875 65.625Z" fill="white" stroke="#F24E1E" stroke-width="5" stroke-linecap="round" stroke-linejoin="round"/>
<path d="M57.8125 65.625C62.1272 65.625 65.625 62.1272 65.625 57.8125C65.625 53.4978 62.1272 50 57.8125 50C53.4978 50 50 53.4978 50 57.8125C50 62.1272 53.4978 65.625 57.8125 65.625Z" fill="white" stroke="#F24E1E" stroke-width="5" stroke-linecap="round" stroke-linejoin="round"/>
</svg>
