<svg width="70" height="70" viewBox="0 0 70 70" fill="none" xmlns="http://www.w3.org/2000/svg">
<path d="M49.5837 61.25V55.4167C49.5837 52.3225 48.3545 49.355 46.1666 47.1671C43.9786 44.9792 41.0112 43.75 37.917 43.75H14.5837C11.4895 43.75 8.522 44.9792 6.33408 47.1671C4.14616 49.355 2.91699 52.3225 2.91699 55.4167V61.25" stroke="#F24E1E" stroke-width="5" stroke-linecap="round" stroke-linejoin="round"/>
<path d="M26.2497 32.0833C32.693 32.0833 37.9163 26.86 37.9163 20.4167C37.9163 13.9733 32.693 8.75 26.2497 8.75C19.8064 8.75 14.583 13.9733 14.583 20.4167C14.583 26.86 19.8064 32.0833 26.2497 32.0833Z" stroke="#F24E1E" stroke-width="5" stroke-linecap="round" stroke-linejoin="round"/>
<path d="M67.083 61.25V55.4166C67.0811 52.8317 66.2207 50.3206 64.637 48.2776C63.0533 46.2346 60.8359 44.7754 58.333 44.1292" stroke="#F24E1E" stroke-width="5" stroke-linecap="round" stroke-linejoin="round"/>
<path d="M46.667 9.12915C49.1765 9.7717 51.4008 11.2312 52.9893 13.2776C54.5777 15.3239 55.4399 17.8407 55.4399 20.4312C55.4399 23.0217 54.5777 25.5385 52.9893 27.5849C51.4008 29.6313 49.1765 31.0908 46.667 31.7333" stroke="#F24E1E" stroke-width="5" stroke-linecap="round" stroke-linejoin="round"/>
</svg>
